<svg width="1083" height="416" viewBox="0 0 1083 416" fill="none" xmlns="http://www.w3.org/2000/svg">
<path d="M1034.86 195.574V4.88879H1082.54V206.641C1082.54 228.206 1071.75 242.11 1049.9 248.637V411.797H1002.23V247.785C980.95 241.543 970.451 227.922 970.451 206.641V4.88879H1018.12V195.574C1018.12 200.114 1021.53 203.803 1026.07 203.803C1030.89 203.803 1034.86 200.114 1034.86 195.574Z" fill="white"/>
<path d="M905.471 184.507V4.88879H953.142V411.797H905.471V232.179H888.729V411.797H841.058V4.88879H888.729V184.507H905.471Z" fill="white"/>
<path d="M711.664 4.88879H767.281C801.332 4.88879 823.749 17.6579 823.749 47.4525V208.911C823.749 238.705 801.332 251.474 767.281 251.474H759.336V411.797H711.664V4.88879ZM776.077 195.574V60.7891C776.077 56.2489 772.105 52.5601 767.281 52.5601H759.336V203.803H767.281C772.105 203.803 776.077 200.114 776.077 195.574Z" fill="white"/>
<path d="M637.887 0.916138C671.087 0.916138 694.355 16.2391 694.355 45.7499V411.797H646.684V240.408H629.942V411.797H582.271V45.7499C582.271 16.2391 604.971 0.916138 637.887 0.916138ZM629.942 56.8164V192.736H646.684V56.8164C646.684 52.2763 642.711 48.0199 637.887 48.0199C633.347 48.0199 629.942 52.2763 629.942 56.8164Z" fill="white"/>
<path d="M564.962 47.4525V192.736C564.962 204.087 558.719 215.721 552.193 219.41C558.719 223.098 564.962 234.733 564.962 246.083V411.797H517.29V252.042C517.29 247.218 513.318 243.245 508.494 243.245H500.549V411.797H452.877V4.88879H508.494C542.545 4.88879 564.962 17.6579 564.962 47.4525ZM500.549 52.5601V195.574H508.494C513.318 195.574 517.29 191.601 517.29 186.778V60.7891C517.29 56.2489 513.318 52.5601 508.494 52.5601H500.549Z" fill="white"/>
<path d="M435.568 45.7499V171.738H387.897V56.8164C387.897 52.2763 383.924 48.0199 379.1 48.0199C374.56 48.0199 371.155 52.2763 371.155 56.8164V360.153C371.155 364.694 374.56 368.666 379.1 368.666C383.924 368.666 387.897 364.694 387.897 360.153V248.637H379.1V200.965H435.568V371.22C435.568 400.731 412.3 415.77 379.1 415.77C346.184 415.77 323.484 400.731 323.484 371.22V45.7499C323.484 16.2391 346.184 0.916138 379.1 0.916138C412.3 0.916138 435.568 16.2391 435.568 45.7499Z" fill="white"/>
<path d="M249.707 0.916138C282.906 0.916138 306.175 16.2391 306.175 45.7499V371.22C306.175 400.731 282.906 415.77 249.707 415.77C216.791 415.77 194.09 400.731 194.09 371.22V45.7499C194.09 16.2391 216.791 0.916138 249.707 0.916138ZM249.707 368.666C254.531 368.666 258.503 364.694 258.503 360.153V56.8164C258.503 52.2763 254.531 48.0199 249.707 48.0199C245.167 48.0199 241.762 52.2763 241.762 56.8164V360.153C241.762 364.694 245.167 368.666 249.707 368.666Z" fill="white"/>
<path d="M177.065 4.88879V411.797H129.393V4.88879H177.065Z" fill="white"/>
<path d="M112.084 47.4525V181.67C112.084 193.02 105.842 204.654 99.3152 208.343C105.842 212.032 112.084 223.666 112.084 235.016V369.234C112.084 399.028 89.6675 411.797 55.6165 411.797H0V4.88879H55.6165C89.6675 4.88879 112.084 17.6579 112.084 47.4525ZM55.6165 52.5601H47.6713V184.507H55.6165C61.0079 184.507 64.413 180.819 64.413 175.995V60.7891C64.413 56.2489 60.4404 52.5601 55.6165 52.5601ZM64.413 355.33V240.975C64.413 235.584 60.4404 232.179 55.6165 232.179H47.6713V364.126H55.6165C60.4404 364.126 64.413 360.153 64.413 355.33Z" fill="white"/>
</svg>
