<svg width="1255" height="390" viewBox="0 0 1255 390" fill="none" xmlns="http://www.w3.org/2000/svg">
<path d="M1210.4 183.062V4.64795H1255V193.416C1255 213.594 1244.91 226.603 1224.47 232.71V385.37H1179.87V231.913C1159.96 226.072 1150.13 213.328 1150.13 193.416V4.64795H1194.74V183.062C1194.74 187.31 1197.92 190.761 1202.17 190.761C1206.68 190.761 1210.4 187.31 1210.4 183.062Z" fill="black"/>
<path d="M1089.33 172.707V4.64795H1133.94V385.37H1089.33V217.311H1073.67V385.37H1029.07V4.64795H1073.67V172.707H1089.33Z" fill="black"/>
<path d="M907.999 4.64795H960.037C991.896 4.64795 1012.87 16.5953 1012.87 44.4724V195.54C1012.87 223.417 991.896 235.365 960.037 235.365H952.603V385.37H907.999V4.64795ZM968.267 183.062V56.9508C968.267 52.7028 964.55 49.2514 960.037 49.2514H952.603V190.761H960.037C964.55 190.761 968.267 187.31 968.267 183.062Z" fill="black"/>
<path d="M838.97 0.930908C870.033 0.930908 891.804 15.2677 891.804 42.8794V385.37H847.201V225.01H831.536V385.37H786.933V42.8794C786.933 15.2677 808.173 0.930908 838.97 0.930908ZM831.536 53.2337V180.407H847.201V53.2337C847.201 48.9858 843.484 45.0034 838.97 45.0034C834.722 45.0034 831.536 48.9858 831.536 53.2337Z" fill="black"/>
<path d="M770.738 44.4724V180.407C770.738 191.027 764.897 201.912 758.79 205.363C764.897 208.815 770.738 219.7 770.738 230.32V385.37H726.134V235.896C726.134 231.382 722.417 227.665 717.904 227.665H710.47V385.37H665.866V4.64795H717.904C749.763 4.64795 770.738 16.5953 770.738 44.4724ZM710.47 49.2514V183.062H717.904C722.417 183.062 726.134 179.345 726.134 174.831V56.9508C726.134 52.7028 722.417 49.2514 717.904 49.2514H710.47Z" fill="black"/>
<path d="M649.671 42.8794V160.76H605.067V53.2337C605.067 48.9858 601.35 45.0033 596.837 45.0033C592.589 45.0033 589.403 48.9858 589.403 53.2337V337.05C589.403 341.298 592.589 345.015 596.837 345.015C601.35 345.015 605.067 341.298 605.067 337.05V232.709H596.837V188.106H649.671V347.404C649.671 375.016 627.9 389.087 596.837 389.087C566.039 389.087 544.8 375.016 544.8 347.404V42.8794C544.8 15.2677 566.039 0.930908 596.837 0.930908C627.9 0.930908 649.671 15.2677 649.671 42.8794Z" fill="black"/>
<path d="M475.77 0.930908C506.834 0.930908 528.604 15.2677 528.604 42.8794V347.404C528.604 375.016 506.834 389.087 475.77 389.087C444.973 389.087 423.733 375.016 423.733 347.404V42.8794C423.733 15.2677 444.973 0.930908 475.77 0.930908ZM475.77 345.015C480.284 345.015 484.001 341.298 484.001 337.05V53.2337C484.001 48.9858 480.284 45.0033 475.77 45.0033C471.523 45.0033 468.337 48.9858 468.337 53.2337V337.05C468.337 341.298 471.523 345.015 475.77 345.015Z" fill="black"/>
<path d="M407.538 42.8794V160.76H362.934V53.2337C362.934 48.9858 359.217 45.0033 354.704 45.0033C350.456 45.0033 347.27 48.9858 347.27 53.2337V337.05C347.27 341.298 350.456 345.015 354.704 345.015C359.217 345.015 362.934 341.298 362.934 337.05V229.258H407.538V347.404C407.538 375.016 385.767 389.087 354.704 389.087C323.906 389.087 302.667 375.016 302.667 347.404V42.8794C302.667 15.2677 323.906 0.930908 354.704 0.930908C385.767 0.930908 407.538 15.2677 407.538 42.8794Z" fill="black"/>
<path d="M286.471 42.8794V160.76H241.868V53.2337C241.868 48.9858 238.151 45.0033 233.637 45.0033C229.389 45.0033 226.203 48.9858 226.203 53.2337V162.353L271.338 195.009C281.427 201.646 286.471 210.939 286.471 222.355V347.404C286.471 375.016 264.7 389.087 233.637 389.087C202.84 389.087 181.6 375.016 181.6 347.404V229.258H226.203V337.05C226.203 341.298 229.389 345.015 233.637 345.015C238.151 345.015 241.868 341.298 241.868 337.05V227.665L196.202 195.009C186.379 188.372 181.6 179.345 181.6 167.928V42.8794C181.6 15.2677 202.84 0.930908 233.637 0.930908C264.7 0.930908 286.471 15.2677 286.471 42.8794Z" fill="black"/>
<path d="M165.67 4.64795V385.37H121.067V4.64795H165.67Z" fill="black"/>
<path d="M0 385.37V4.64795H52.0373C83.1004 4.64795 104.871 18.9848 104.871 46.5964V342.891C104.871 370.768 83.1004 385.37 52.0373 385.37H0ZM52.0373 49.2514H44.6034V340.767H52.0373C56.5508 340.767 60.2677 337.05 60.2677 332.536V56.9508C60.2677 52.7028 56.5508 49.2514 52.0373 49.2514Z" fill="black"/>
</svg>
