<svg width="502" height="416" viewBox="0 0 502 416" fill="none" xmlns="http://www.w3.org/2000/svg">
<path d="M64.6364 360.23V3.98358H112.473V371.327C112.473 400.919 89.1242 416 55.8094 416C22.7794 416 0 400.919 0 371.327V231.902H47.8366V360.23C47.8366 364.782 51.2535 368.766 55.8094 368.766C60.65 368.766 64.6364 364.782 64.6364 360.23Z" fill="white"/>
<path d="M185.652 0C218.967 0 242.315 15.3653 242.315 44.9576V371.327C242.315 400.919 218.967 416 185.652 416C152.622 416 129.842 400.919 129.842 371.327V44.9576C129.842 15.3653 152.622 0 185.652 0ZM185.652 368.766C190.492 368.766 194.479 364.782 194.479 360.23V56.0547C194.479 51.5021 190.492 47.2339 185.652 47.2339C181.096 47.2339 177.679 51.5021 177.679 56.0547V360.23C177.679 364.782 181.096 368.766 185.652 368.766Z" fill="white"/>
<path d="M324.321 184.098V3.98358H372.158V412.016H324.321V231.902H307.521V412.016H259.685V3.98358H307.521V184.098H324.321Z" fill="white"/>
<path d="M445.336 0C478.651 0 502 15.3653 502 44.9576V412.016H454.163V56.0547C454.163 51.5021 450.177 47.2339 445.336 47.2339C440.78 47.2339 437.364 51.5021 437.364 56.0547V412.016H389.527V44.9576C389.527 15.3653 412.306 0 445.336 0Z" fill="white"/>
</svg>
