<svg width="678" height="416" viewBox="0 0 678 416" fill="none" xmlns="http://www.w3.org/2000/svg">
<path d="M122.437 0C155.776 0 178.769 15.5138 178.769 45.3923V416H130.484V56.5967C130.484 52 127.035 47.6906 122.437 47.6906C117.551 47.6906 113.527 52 113.527 56.5967V416H65.2421V56.5967C65.2421 52 61.2183 47.6906 56.3323 47.6906C51.7338 47.6906 48.2849 52 48.2849 56.5967V416H0V45.3923C0 15.5138 22.9928 0 56.3323 0C68.691 0 79.9 3.44751 89.3845 10.0552C98.869 3.44751 110.078 0 122.437 0Z" fill="white"/>
<path d="M252.921 0C286.548 0 310.115 15.5138 310.115 45.3923V416H261.83V242.475H244.873V416H196.588V45.3923C196.588 15.5138 219.581 0 252.921 0ZM244.873 56.5967V194.21H261.83V56.5967C261.83 52 257.807 47.6906 252.921 47.6906C248.322 47.6906 244.873 52 244.873 56.5967Z" fill="white"/>
<path d="M392.889 197.083V4.0221H441.174V208.287C441.174 230.122 430.253 244.199 408.122 250.807V416H359.837V249.945C338.281 243.624 327.647 229.834 327.647 208.287V4.0221H375.932V197.083C375.932 201.68 379.381 205.414 383.98 205.414C388.866 205.414 392.889 201.68 392.889 197.083Z" fill="white"/>
<path d="M546.941 4.0221V52.2873H506.991V185.878H546.941V234.144H506.991V367.735H546.941V416H458.706V4.0221H546.941Z" fill="white"/>
<path d="M678 47.116V194.21C678 205.702 671.677 217.481 665.067 221.215C671.677 224.95 678 236.729 678 248.221V416H629.715V254.254C629.715 249.37 625.691 245.348 620.805 245.348H612.758V416H564.473V4.0221H620.805C655.295 4.0221 678 16.9503 678 47.116ZM612.758 52.2873V197.083H620.805C625.691 197.083 629.715 193.061 629.715 188.177V60.6188C629.715 56.0221 625.691 52.2873 620.805 52.2873H612.758Z" fill="white"/>
</svg>
