<svg width="556" height="592" viewBox="0 0 556 592" fill="none" xmlns="http://www.w3.org/2000/svg">
<path d="M31.9716 155.003V1.71409H52.673V159.778C52.673 172.511 42.5687 179 28.1517 179C13.8578 179 4 172.511 4 159.778V99.7845H24.7014V155.003C24.7014 156.962 26.1801 158.676 28.1517 158.676C30.2464 158.676 31.9716 156.962 31.9716 155.003Z" fill="white"/>
<path d="M84.3412 0C98.7583 0 108.863 6.61149 108.863 19.3447V159.778C108.863 172.511 98.7583 179 84.3412 179C70.0474 179 60.1896 172.511 60.1896 159.778V19.3447C60.1896 6.61149 70.0474 0 84.3412 0ZM84.3412 158.676C86.436 158.676 88.1611 156.962 88.1611 155.003V24.1197C88.1611 22.1607 86.436 20.3242 84.3412 20.3242C82.3697 20.3242 80.891 22.1607 80.891 24.1197V155.003C80.891 156.962 82.3697 158.676 84.3412 158.676Z" fill="white"/>
<path d="M144.351 79.2155V1.71409H165.052V177.286H144.351V99.7845H137.081V177.286H116.379V1.71409H137.081V79.2155H144.351Z" fill="white"/>
<path d="M196.72 0C211.137 0 221.242 6.61149 221.242 19.3447V177.286H200.54V24.1197C200.54 22.1607 198.815 20.3242 196.72 20.3242C194.749 20.3242 193.27 22.1607 193.27 24.1197V177.286H172.569V19.3447C172.569 6.61149 182.427 0 196.72 0Z" fill="white"/>
<path d="M311.81 0C326.104 0 335.962 6.61149 335.962 19.3447V177.286H315.261V24.1197C315.261 22.1607 313.782 20.3242 311.81 20.3242C309.716 20.3242 307.991 22.1607 307.991 24.1197V177.286H287.289V24.1197C287.289 22.1607 285.564 20.3242 283.469 20.3242C281.498 20.3242 280.019 22.1607 280.019 24.1197V177.286H259.318V19.3447C259.318 6.61149 269.175 0 283.469 0C288.768 0 293.573 1.46922 297.64 4.28523C301.706 1.46922 306.512 0 311.81 0Z" fill="white"/>
<path d="M367.754 0C382.171 0 392.275 6.61149 392.275 19.3447V177.286H371.573V103.335H364.303V177.286H343.602V19.3447C343.602 6.61149 353.46 0 367.754 0ZM364.303 24.1197V82.7661H371.573V24.1197C371.573 22.1607 369.848 20.3242 367.754 20.3242C365.782 20.3242 364.303 22.1607 364.303 24.1197Z" fill="white"/>
<path d="M427.763 83.9904V1.71409H448.464V88.7654C448.464 98.0704 443.782 104.07 434.294 106.886V177.286H413.592V106.518C404.351 103.825 399.791 97.948 399.791 88.7654V1.71409H420.493V83.9904C420.493 85.9494 421.972 87.541 423.943 87.541C426.038 87.541 427.763 85.9494 427.763 83.9904Z" fill="white"/>
<path d="M493.81 1.71409V22.2832H476.682V79.2155H493.81V99.7845H476.682V156.717H493.81V177.286H455.981V1.71409H493.81Z" fill="white"/>
<path d="M550 20.0793V82.7661C550 87.6635 547.289 92.6833 544.455 94.275C547.289 95.8666 550 100.886 550 105.784V177.286H529.299V108.355C529.299 106.274 527.573 104.56 525.479 104.56H522.028V177.286H501.327V1.71409H525.479C540.265 1.71409 550 7.22367 550 20.0793ZM522.028 22.2832V83.9904H525.479C527.573 83.9904 529.299 82.2763 529.299 80.1949V25.8338C529.299 23.8748 527.573 22.2832 525.479 22.2832H522.028Z" fill="white"/>
<path d="M133.408 249.541V352.737H75.4629V263.821C75.4629 258.432 71.9593 254.391 66.8386 254.391C61.4484 254.391 57.4057 258.432 57.4057 263.821V354.353L113.733 391.806C126.939 400.697 133.408 412.822 133.408 428.18V539.729C133.408 575.025 106.457 592 66.8386 592C26.951 592 0 575.025 0 539.729V435.994H57.4057V525.448C57.4057 530.568 61.4484 534.609 66.8386 534.609C71.4203 534.609 75.4629 530.568 75.4629 525.448V434.916L19.1352 397.194C6.46825 388.303 0 376.178 0 360.82V249.541C0 214.244 26.951 197 66.8386 197C106.457 197 133.408 214.244 133.408 249.541Z" fill="white"/>
<path d="M218.842 197C258.46 197 285.412 214.244 285.412 249.541V539.729C285.412 575.025 258.46 592 218.842 592C178.955 592 152.004 575.025 152.004 539.729V249.541C152.004 214.244 178.955 197 218.842 197ZM218.842 534.609C223.424 534.609 227.467 530.568 227.467 525.448V263.821C227.467 258.432 223.963 254.391 218.842 254.391C213.452 254.391 209.41 258.432 209.41 263.821V525.448C209.41 530.568 213.452 534.609 218.842 534.609Z" fill="white"/>
<path d="M361.413 201.311V529.759H405.074V587.689H304.008V201.311H361.413Z" fill="white"/>
<path d="M489.431 197C529.049 197 556 214.244 556 249.541V539.729C556 575.025 529.049 592 489.431 592C449.543 592 422.592 575.025 422.592 539.729V249.541C422.592 214.244 449.543 197 489.431 197ZM489.431 534.609C494.013 534.609 498.055 530.568 498.055 525.448V263.821C498.055 258.432 494.552 254.391 489.431 254.391C484.041 254.391 479.998 258.432 479.998 263.821V525.448C479.998 530.568 484.041 534.609 489.431 534.609Z" fill="white"/>
</svg>
